<svg width="302" height="163" viewBox="0 0 302 163" fill="none" xmlns="http://www.w3.org/2000/svg">
<path d="M11.9995 148.828C19.0751 148.482 28.2691 148.397 35.3419 148.351C37.5676 148.337 36.4451 148.817 37.9632 148.825C40.9934 148.834 43.6624 148.475 46.6904 148.488C47.6453 148.497 46.5005 149.24 47.5045 149.234C53.1914 149.181 58.3617 148.65 64.1417 148.358C92.1745 146.929 119.714 144.392 148.15 141.651C157.423 140.754 169.135 140.071 178.526 138.741C179.653 138.582 178.912 138.072 179.122 137.999C182.43 136.877 181.437 138.187 183.694 138.09C192.345 137.735 202.153 136.656 210.487 135.452C214.098 134.93 210.319 134.193 214.064 134.416C214.325 134.43 213.47 135.161 214.481 135.11C216.709 134.999 220.804 134.404 222.544 134.248C225.871 133.954 226.426 133.881 229.622 133.509C233.959 133.008 238.903 132.731 243.57 132.027C244.56 131.875 243.166 131.397 244.74 131.097C246.344 130.795 250.495 130.349 251.861 130.336C253.255 130.32 252.73 130.891 252.988 130.977C255.103 131.704 259.74 129.78 260.364 129.67C269.596 128.089 277.118 127.572 285.684 126.695C287.695 126.492 289.735 126.27 291.824 126.012C299.778 125.025 308.457 123.688 315.977 122.783C325.179 121.676 332.763 121.073 341.63 119.894C342.567 119.77 341.373 119.16 342.518 119.007C354.639 117.388 366.708 115.938 378.674 114.924C379.878 114.823 378.418 115.677 379.627 115.615C387.013 115.222 399.036 115 402.928 111.592C407.904 111.067 414.017 110.398 418.631 110.39C421.601 110.385 418.877 111.464 422.341 110.707C423.121 110.537 422.014 110.042 423.19 109.835C428.141 108.964 433.663 108.458 438.647 107.484C439.661 107.285 439.309 106.759 439.586 106.621C441.911 105.487 446.183 106.311 447.024 106.302C453.711 106.183 458.539 105.263 464.799 104.468C466.254 104.284 464.437 103.753 465.834 103.548C473.202 102.481 480.39 101.612 487.554 101.019C489.137 100.89 487.774 101.721 488.535 101.693C491.893 101.558 492.473 100.248 495.709 100.093C496.391 100.058 496.082 100.658 496.214 100.702C498.279 101.398 499.74 99.8402 500.22 99.7474C506.306 98.5407 510.442 99.427 516.43 98.4419C517.147 98.3225 515.432 97.8389 517.453 97.5458C531.01 95.5771 545.04 93.9316 558.488 92.7305C560.55 92.5467 559.155 93.2619 559.292 93.3094C561.528 94.04 562.716 92.5111 563.38 92.3721C568.624 91.3105 573.754 91.7866 577.178 89.7008C599.755 87.2956 621.966 83.4435 644.62 81.9087C644.903 81.8881 644.487 82.6194 645.052 82.5755C651.869 82.0523 650.435 81.1913 654.764 79.3326C655.855 78.8654 659.512 79.9322 659.834 80.0033C661.004 80.2674 659.978 81.4093 660.362 81.4395C663.538 81.6559 662.598 78.4539 666.782 77.898C666.913 77.8861 666.443 78.5608 666.802 78.574C667.919 78.6171 668.97 78.2343 670.068 78.2995C672.57 78.4553 673.704 79.9213 677.25 78.5099C677.702 78.3279 676.74 76.5686 680.45 76.1652C681.926 76.0064 688.468 75.1054 690.327 74.9807C692.181 74.8566 690.999 75.6218 691.133 75.6303C696.195 75.762 694.359 76.3391 697.002 77.1784C699.647 78.013 698.587 75.325 699.562 74.8797C700.538 74.4352 704.278 74.6015 705.209 74.7084C706.138 74.8157 705.067 75.3444 705.883 75.3665C711.224 75.5094 707.994 73.6817 709.657 73.0115C713.577 71.4272 717.021 73.0668 720.784 72.7718C721.802 72.6918 720.914 72.3321 721.809 72.1684C725.354 71.5259 727.589 71.883 731.588 70.7505C732.241 70.5656 735.375 68.887 737.637 69.5114C737.955 69.6025 737.175 70.2292 738.704 70.1427C740.98 70.0152 745.066 69.5852 747.477 69.0891C749.257 68.7226 747.084 68.1507 749.382 68.1121C750.404 68.0954 748.605 68.8391 750.52 68.7664C752.423 68.6951 757.239 68.031 759.075 67.7687C760.907 67.5067 759.818 66.9985 759.96 66.9355C760.823 66.5682 764.308 65.7884 764.62 65.7475C780.263 63.5813 794.857 62.7342 810.035 60.3413C811.223 60.1549 810.339 59.5839 810.519 59.5485C814.562 58.7195 811.584 60.9496 814.517 61.1708C813.922 59.852 815.638 59.8758 818.5 59.3399C819.879 59.0804 819.052 58.6496 819.171 58.5782C821.124 57.4948 822.7 58.3463 823.099 58.5103C824.57 59.1129 825.934 57.9859 826.936 58.3863C827.936 58.7828 825.897 59.8417 828.67 59.4609C829.382 58.865 827.15 57.8553 829.229 57.3653C837.145 55.5048 851.919 54.554 858.348 53.7998C864.732 53.0515 866.786 52.6841 870.535 52.3629C877.241 51.7918 874.67 51.1655 878.753 50.1742C882.852 49.1809 881.146 51.7976 881.811 52.2219C882.465 52.6474 883.037 52.0425 883.804 52.2218C884.57 52.4013 883.039 52.9554 884.766 52.8299C886.493 52.7043 891.065 51.1786 891.604 50.5695C892.742 49.2797 890.467 48.3912 895.071 48.1934C895.336 48.1828 894.569 48.9135 895.58 48.8415C903.634 48.2454 911.836 47.1755 919.819 46.5321C920.917 46.4447 920.035 47.2616 920.674 47.2185C927.344 46.7706 924.826 45.9305 928.282 44.1584C927.697 45.9782 929.841 46.7559 934.876 46.0905C937.904 45.691 937.283 45.0138 939.172 44.2243C939.742 43.9862 941.929 44.2148 942.269 43.8115C943.386 42.4925 941.208 41.4759 946.434 41.2956C946.664 41.2896 946.028 42.015 946.815 41.9481C951.906 41.5184 952.349 40.2358 957.809 39.3547C962.086 38.6642 969.846 38.3679 974.767 37.8281C974.922 39.7651 979.465 38.7066 981.157 37.1294C984.33 36.7585 987.743 36.2236 990.834 35.9948C991.898 35.9155 991.279 36.5654 991.421 36.6077C993.589 37.2772 994.796 35.8016 995.475 35.659C1002.83 34.1698 1009.07 34.3271 1015.98 32.4246C1016.23 32.3564 1016.46 30.966 1018.48 31.6872C1018.61 31.7379 1016.36 32.6598 1019.69 32.2595C1023.02 31.8592 1029.4 31.7307 1033.95 30.4884C1035.05 30.1886 1037.75 28.7227 1040.14 29.2633C1040.46 29.3376 1040.18 29.7654 1040.64 29.9196C1042.15 30.4083 1042.75 28.954 1044.57 29.8769C1046.38 30.8003 1049.94 31.1967 1054.49 29.7784C1054.64 29.7354 1055.6 28.5169 1057.07 28.3365C1059.41 28.0496 1062.77 27.8253 1065.21 27.489C1066.38 27.3276 1065.54 26.764 1065.75 26.7245C1073.57 25.2929 1079.3 25.1244 1087.74 24.2508C1089.29 24.0915 1093.61 22.5879 1096.7 22.9014C1100.09 23.2431 1097.15 26.9605 1104.61 25.1655C1107.61 24.444 1110.92 19.7851 1116.7 21.1901C1127.23 19.232 1137.2 19.007 1147.77 16.8115C1148.24 16.7133 1149.6 15.3538 1150.73 15.2176C1152.41 15.0174 1153.4 15.4339 1154.6 15.309C1159.61 14.7992 1164.13 13.7213 1168.96 13.1437C1170.79 12.9232 1170.23 13.5677 1172.42 13.3047C1174.6 13.0414 1175.96 12.1102 1178.97 12.0665C1181.24 12.036 1183.68 13.2373 1186.67 13.0124C1186.58 11.5153 1188.63 11.2703 1192.19 10.3926C1192.88 10.2232 1192.06 9.80768 1192.38 9.70088C1193.68 9.25484 1194.98 9.51553 1196.21 9.055C1196.51 8.94384 1196.46 8.43577 1196.7 8.31634C1198.75 7.28155 1202.44 7.94294 1203.08 8.0592C1205.51 8.49792 1206.51 7.69283 1208.34 7.74828C1210.17 7.80404 1207.55 8.53441 1209.66 8.43318C1214.03 8.22258 1219.58 7.39167 1223.99 6.82245C1225.74 6.5922 1224.45 6.07788 1224.7 6.02926C1228.3 5.36985 1232.06 5.59553 1233.89 3.97919C1236.87 7.12046 1236.02 3.34753 1241.3 3.3464C1241.71 3.34776 1242.45 4.9233 1240.92 5.3759C1239.38 5.82824 1236.94 5.63378 1234.82 6.30298C1234.32 6.46066 1231.58 8.39947 1231.19 8.54701C1228.14 9.7011 1227.36 7.3022 1227.18 7.18961C1225.1 5.98601 1221.71 8.13391 1220.77 8.37642C1216.5 9.48769 1212.76 9.6389 1209.18 10.5034C1206.84 11.0659 1206.83 12.7079 1204.96 12.9097C1198.74 13.5813 1196.27 11.6255 1190.7 14.3593C1189.51 14.9434 1190.99 16.5358 1186.31 15.757C1186.02 15.7078 1182.51 14.8907 1180.69 15.9512C1180.46 16.0848 1180.54 16.5969 1180.23 16.6829C1178.13 17.2498 1176.64 17.0331 1174.34 17.5424C1172.04 18.0518 1169.28 18.7205 1166.6 18.9042C1164.99 19.0157 1162.81 18.3363 1162.01 18.2054C1159.75 17.8225 1157.59 19.24 1156.14 18.6039C1154.68 17.9652 1157.15 16.3637 1153.54 16.3103C1153.58 17.6609 1153.47 19.0696 1153.44 20.4385C1145.64 21.4405 1137.93 22.04 1130.15 23.1481C1129.18 23.2868 1130.27 23.8704 1129.23 24.0375C1124.88 24.7398 1121 24.7414 1116.5 25.555C1113 26.1889 1109.25 27.4667 1105.6 28.1523C1103.15 26.9291 1097.77 28.1802 1093.8 28.5727C1092.41 28.7109 1092.45 28.2911 1091.45 28.2907C1087.67 28.2989 1089.59 29.4126 1088.6 29.7617C1084.35 31.2552 1083.59 28.2514 1078.42 29.0231C1078.15 29.063 1075.02 31.1396 1074.58 31.3028C1071.74 32.3571 1074.01 30.802 1072.17 30.9283C1068.79 31.1586 1066.42 31.0827 1062.56 32.0861C1061.44 32.3808 1058.84 33.7629 1056.52 33.2769C1056.21 33.2135 1056.3 32.6542 1056.06 32.6543C1051.75 32.7007 1051.86 34.4046 1049.52 35.3026C1047.17 36.1998 1043.26 35.5398 1042.44 35.3069C1040.32 34.7071 1043.93 34.7289 1044.03 34.6289C1045.17 33.4422 1042.44 33.9864 1040.33 34.1825C1039.81 32.5673 1036.89 33.0609 1038.15 34.3925C1038.29 34.5374 1039.9 34.1635 1040.33 34.1825C1038.71 36.055 1035.52 36.6963 1031.76 35.6557C1030 35.1676 1031.46 34.1267 1026.45 35.109C1024.18 35.554 1025.22 36.5753 1023.24 37.1579C1018.72 38.4886 1012.61 38.2264 1007.85 39.0364C1006.13 39.3304 1007.9 39.7275 1006.72 39.9499C1003.6 40.542 1000.77 40.446 997.648 41.1095C997.365 41.1704 998.151 41.7301 997.172 41.8701C989.752 42.9444 983.241 43.393 975.521 44.4183C971.764 44.9175 965.095 46.18 961.205 46.6286C954.458 47.4106 946.077 47.5683 940.392 48.5663C936.652 49.2186 937.564 49.7617 936.013 50.4231C933.019 51.7036 927.319 50.8943 926.549 50.7539C926.525 50.7491 929.733 50.1619 927.965 50.0575C926.87 49.4928 926.585 50.746 926.549 50.7539C926.042 50.6646 919.582 51.3801 918.324 51.676C917.639 51.8374 918.11 52.4046 917.752 52.477C909.249 54.1815 900.625 55.4981 891.835 56.3815C891.679 56.3896 891.818 55.6659 891.453 55.6936C886.352 56.0637 883.234 57.3442 879.144 58.4043C875.05 59.4646 871.761 59.7336 869.105 58.879C865.962 59.4522 861.365 59.5327 858.722 59.5618C856.079 59.591 855.898 60.9877 855.673 61.045C848.657 62.8526 844.458 62.629 837.072 63.4949C833.525 63.9089 826.553 65.0404 822.766 65.6968C819.772 66.218 817.92 66.144 815.181 66.7158C814.81 66.7928 815.268 67.3427 815.157 67.381C812.168 68.5117 813.455 66.8458 812.783 66.6688C810.348 66.024 808.854 65.7069 804.976 66.6815C804.089 66.9045 801.679 69.3775 800.025 69.7242C797.87 70.1717 798.59 69.3045 796.338 69.7921C796.145 69.8331 796.248 70.295 794.841 70.4619C788.314 71.2425 781.203 71.9149 774.498 72.8573C773.582 72.9843 774.856 73.5687 773.534 73.7642C767.298 74.6857 760.376 75.5808 754.252 76.0441C752.742 76.1561 753.612 75.5119 753.266 75.4011C751.145 74.7349 748.5 76.4662 748.038 76.554C737.094 78.675 728.205 78.6107 716.978 80.6984C716.365 80.8149 711.815 82.8982 709.541 81.9329C709.38 81.8698 707.146 80.87 705.373 81.9924C705.264 82.0624 706.671 82.5431 704.359 82.7824C702.047 83.0218 698.407 83.9515 695.163 83.6489C694.136 83.5542 691.611 82.5959 688.782 84.0029C688.597 84.0995 684.331 86.9979 682.495 85.6327C682.197 85.4074 682.249 83.698 678.844 85.0229C678.194 85.2784 679.463 85.4897 677.724 85.9576C675.088 86.6729 671.327 86.7159 668.065 87.907C667.494 88.117 665.141 89.5846 663.024 88.9882C662.692 88.8948 663.214 88.2572 662.148 88.3349C657.08 88.7016 651.889 89.7697 646.78 90.053C644.967 90.155 645.783 89.128 643.855 89.137C641.921 89.1469 638.071 89.4198 636.148 90.0942C634.224 90.7688 636.574 91.9222 633.628 92.4292C620.871 94.6257 608.034 95.4625 595.199 97.0294C593.302 97.2607 594.939 97.5689 592.152 97.9462C581.962 99.3292 563.957 102.19 555.004 102.252C547.636 102.328 556.673 100.462 551.087 100.833C548.394 101.013 545.738 103.064 545.104 103.201C538.912 104.558 534.496 104.383 528.962 105.339C527.821 105.536 529.035 106.067 528.063 106.228C524.692 106.789 521.052 106.957 517.827 107.435C516.379 107.652 516.714 108.135 515.375 108.269C512.173 108.596 509.336 108.746 506.188 108.663C505.901 108.655 507.712 107.764 505.369 108.045C501.605 108.499 496.784 108.641 492.418 109.713C491.128 110.033 491.228 111.224 488.315 110.772C487.705 110.678 488.267 109.159 485.167 110.812C484.643 111.088 479.4 113.455 476.605 112.733C475.864 112.543 473.932 111.611 472.399 111.996C472.187 112.053 473.133 112.577 471.825 112.81C467.216 113.62 462.385 114.179 457.723 114.986C456.479 115.202 458.428 115.619 456.571 115.921C451.469 116.752 445.118 117.403 439.969 117.86C438.092 118.024 439.312 117.312 439.168 117.27C436.86 116.587 435.744 118.056 435.032 118.225C430.608 119.259 427.142 119.083 423.089 119.77C421.971 119.958 422.848 120.477 422.632 120.561C420.38 121.401 421.983 120.061 420.462 120.132C416.18 120.329 411.504 120.981 407.307 121.601C405.765 121.829 407.594 122.327 406.21 122.524C398.132 123.687 389.384 124.737 381.352 125.359C379.839 125.475 380.714 124.799 380.385 124.712C378.111 124.102 375.125 125.711 374.42 125.918C371.211 126.861 369.751 126.549 366.81 127.016C352.486 129.301 334.773 131.208 321.098 132.716C308.601 134.094 297.732 135.12 286.873 136.337C282.224 136.861 277.567 137.416 272.75 138.046C271.693 138.183 272.85 138.791 271.94 138.919C260.01 140.559 248.233 141.691 236.31 143.332C235.346 143.464 236.82 143.998 235.278 144.232C232.228 144.704 227.863 145.185 224.613 145.342C223.007 145.423 225.072 144.569 223.458 144.663C219.695 144.879 215.839 145.282 211.882 145.859C210.237 146.102 212.81 146.527 210.668 146.786C196.409 148.524 181.944 150.306 167.285 150.994C166.27 151.042 165.221 149.683 163.143 150.196C163.029 150.617 163.09 151.092 163.069 151.532C142.173 154.07 121.126 155.778 99.8738 157.697C98.9859 157.777 100.59 158.407 98.8754 158.565C88.8384 159.49 79.1282 160.559 68.7884 160.593C67.769 160.596 68.1715 159.196 65.2429 159.626C64.6739 159.708 60.1399 160.225 59.0551 160.597C58.8896 160.654 59.7984 161.229 58.2935 161.354C49.8093 162.049 40.8333 162.44 32.365 162.421C30.9978 162.416 32.4363 161.674 31.4407 161.665C24.4694 161.608 16.9794 162.338 10.3446 161.845C5.91846 161.511 7.53347 160.306 5.16915 159.189C4.83716 159.032 2.10789 159.048 1.95627 158.377C1.56867 156.692 2.86232 154.821 2.29282 153.027C2.17177 152.641 -1.47086 153.113 0.67566 152.143C0.823901 152.078 3.47194 151.727 4.11323 151.398C4.56137 151.171 3.73681 150.5 4.65391 150.204C5.56667 149.908 6.61169 150.465 8.121 150.107C9.63361 149.745 8.96982 148.981 11.9995 148.828ZM846.845 59.7004C844.36 59.3738 844.324 61.7927 846.841 60.8783C846.963 60.8312 846.973 59.7156 846.845 59.7004ZM1137.74 20.2449C1134.45 19.6224 1132.51 21.4498 1134.84 21.959C1137.16 22.4674 1138.74 20.433 1137.74 20.2449ZM1170.23 15.0915C1166.45 14.7615 1166.32 18.202 1170.17 16.9924C1170.39 16.9232 1170.45 15.1105 1170.23 15.0915ZM16.0315 158.646C16.0006 158.616 14.042 158.631 13.9887 158.663C12.9596 159.447 16.8896 159.417 16.0315 158.646ZM1202.47 9.90294C1201.26 9.60253 1198.03 10.5721 1199.53 10.9459C1200.74 11.2465 1203.97 10.2765 1202.47 9.90294ZM721.039 73.9161C720.996 73.8858 719.599 74.0394 719.654 74.2354C719.833 74.8663 721.748 74.4267 721.039 73.9161ZM1257.45 2.45742C1249.3 3.42585 1244 1.31166 1252.89 0.433021C1254.5 0.273842 1249.56 1.78413 1251.63 1.75975C1255.43 1.7132 1257.67 -0.364846 1261.61 0.056388C1262.32 0.134516 1257.91 2.40837 1257.43 2.46323C1257.44 2.46132 1257.44 2.45933 1257.45 2.45742ZM845.083 57.0366C845.03 57.0117 843.103 57.2393 843.061 57.2765C842.121 58.1688 846.003 57.7107 845.083 57.0366ZM639.513 83.2448C639.395 83.1924 634.883 83.726 634.746 83.8068C632.559 85.3492 641.682 84.2742 639.513 83.2448ZM974.85 37.8692C976.846 36.8301 979.345 36.4036 981.147 37.1297C979.053 37.3596 976.953 37.6343 974.85 37.8692Z" fill="#2D69FF"/>
</svg>
